# Blender v2.93.1 OBJ File: ''
# www.blender.org
mtllib bamboo_top.mtl
o Top_Cube.005
v -0.062500 0.000000 0.062500
v -0.062500 0.875000 0.062500
v -0.062500 0.000000 -0.062500
v -0.062500 0.875000 -0.062500
v 0.062500 0.000000 0.062500
v 0.062500 0.875000 0.062500
v 0.062500 0.000000 -0.062500
v 0.062500 0.875000 -0.062500
v -0.424264 0.000000 0.424264
v 0.424264 0.000000 -0.424264
v -0.424264 1.000000 0.424264
v 0.424264 1.000000 -0.424264
v 0.424264 0.000000 0.424264
v -0.424264 0.000000 -0.424264
v 0.424264 1.000000 0.424264
v -0.424264 1.000000 -0.424264
v 0.424264 0.000000 -0.424264
v -0.424264 0.000000 0.424264
v 0.424264 1.000000 -0.424264
v -0.424264 1.000000 0.424264
v -0.424264 0.000000 -0.424264
v 0.424264 0.000000 0.424264
v -0.424264 1.000000 -0.424264
v 0.424264 1.000000 0.424264
vt 1.000000 -0.000000
vt 1.000000 1.000000
vt 0.875000 1.000000
vt 0.875000 0.000000
vt 1.000000 -0.000000
vt 1.000000 1.000000
vt 0.875000 1.000000
vt 0.875000 0.000000
vt 1.000000 -0.000000
vt 1.000000 1.000000
vt 0.875000 1.000000
vt 0.875000 0.000000
vt 1.000000 -0.000000
vt 1.000000 1.000000
vt 0.875000 1.000000
vt 0.875000 0.000000
vt 0.437500 0.812500
vt 0.437500 0.937500
vt 0.312500 0.937500
vt 0.312500 0.812500
vt 0.437500 0.812500
vt 0.437500 0.937500
vt 0.312500 0.937500
vt 0.312500 0.812500
vt 0.000000 0.000000
vt 1.000000 0.000000
vt 1.000000 1.000000
vt 0.000000 1.000000
vt 0.000000 0.000000
vt 1.000000 0.000000
vt 1.000000 1.000000
vt 0.000000 1.000000
vt 0.000000 0.000000
vt 1.000000 0.000000
vt 1.000000 1.000000
vt 0.000000 1.000000
vt 0.000000 0.000000
vt 1.000000 0.000000
vt 1.000000 1.000000
vt 0.000000 1.000000
vn -1.0000 0.0000 0.0000
vn 0.0000 0.0000 -1.0000
vn 1.0000 0.0000 0.0000
vn 0.0000 0.0000 1.0000
vn 0.0000 -1.0000 0.0000
vn 0.0000 1.0000 0.0000
vn 0.7071 0.0000 0.7071
vn 0.7071 0.0000 -0.7071
vn -0.7071 0.0000 -0.7071
vn -0.7071 0.0000 0.7071
usemtl Stem
s off
f 1/1/1 2/2/1 4/3/1 3/4/1
f 3/5/2 4/6/2 8/7/2 7/8/2
f 7/9/3 8/10/3 6/11/3 5/12/3
f 5/13/4 6/14/4 2/15/4 1/16/4
f 3/17/5 7/18/5 5/19/5 1/20/5
f 8/21/6 4/22/6 2/23/6 6/24/6
usemtl Leaves
f 9/25/7 10/26/7 12/27/7 11/28/7
f 13/29/8 14/30/8 16/31/8 15/32/8
f 17/33/9 18/34/9 20/35/9 19/36/9
f 21/37/10 22/38/10 24/39/10 23/40/10
