# Blender v2.93.1 OBJ File: 'bulbine.blend'
# www.blender.org
mtllib bulbine_stem_2.mtl
o stem_2_Cube.001
v -0.006943 0.618267 -0.319396
v -0.006943 0.243267 -0.319396
v 0.258222 0.618267 -0.054231
v 0.258222 0.243267 -0.054231
v -0.272108 0.618267 -0.054231
v -0.272108 0.243267 -0.054231
v -0.006943 0.618267 0.210934
v -0.006943 0.243267 0.210934
v -0.353553 0.000000 0.353553
v 0.353553 0.000000 -0.353553
v -0.353553 1.000000 0.353553
v 0.353553 1.000000 -0.353553
v 0.353553 0.000000 0.353553
v -0.353553 0.000000 -0.353553
v 0.353553 1.000000 0.353553
v -0.353553 1.000000 -0.353553
v 0.353553 0.000000 -0.353553
v -0.353553 0.000000 0.353553
v 0.353553 1.000000 -0.353553
v -0.353553 1.000000 0.353553
v -0.353553 0.000000 -0.353553
v 0.353553 0.000000 0.353553
v -0.353553 1.000000 -0.353553
v 0.353553 1.000000 0.353553
vt 0.000000 0.000000
vt 1.000000 0.000000
vt 1.000000 1.000000
vt 0.000000 1.000000
vt 0.000000 0.000000
vt 1.000000 0.000000
vt 1.000000 1.000000
vt 0.000000 1.000000
vt 0.000000 0.000000
vt 1.000000 0.000000
vt 1.000000 1.000000
vt 0.000000 1.000000
vt 0.000000 0.000000
vt 1.000000 0.000000
vt 1.000000 1.000000
vt 0.000000 1.000000
vt 0.000000 0.625000
vt 0.375000 0.625000
vt 0.375000 1.000000
vt 0.000000 1.000000
vt 0.000000 0.625000
vt 0.375000 0.625000
vt 0.000000 1.000000
vt 0.000000 0.625000
vt 0.375000 0.625000
vt 0.375000 1.000000
vt 0.000000 1.000000
vt 0.000000 0.625000
vt 0.375000 0.625000
vt 0.375000 1.000000
vt 0.000000 0.625000
vt 0.375000 0.625000
vt 0.375000 1.000000
vt 0.000000 1.000000
vt 0.375000 1.000000
vt 0.000000 1.000000
vn 0.7071 0.0000 0.7071
vn 0.7071 0.0000 -0.7071
vn -0.7071 0.0000 -0.7071
vn -0.7071 0.0000 0.7071
vn 0.0000 1.0000 0.0000
vn 0.0000 -1.0000 0.0000
usemtl Stem
s off
f 9/1/1 10/2/1 12/3/1 11/4/1
f 13/5/2 14/6/2 16/7/2 15/8/2
f 17/9/3 18/10/3 20/11/3 19/12/3
f 21/13/4 22/14/4 24/15/4 23/16/4
usemtl Lanterns
f 1/17/5 5/18/5 7/19/5 3/20/5
f 4/21/1 3/22/1 7/19/1 8/23/1
f 8/24/4 7/25/4 5/26/4 6/27/4
f 6/28/6 2/29/6 4/30/6 8/23/6
f 2/31/2 1/32/2 3/33/2 4/34/2
f 6/28/3 5/18/3 1/35/3 2/36/3
