# Blender v2.93.1 OBJ File: ''
# www.blender.org
mtllib cross.mtl
o Plane
v -0.494974 -0.000000 0.494974
v 0.494974 0.000000 -0.494974
v 0.494974 1.000000 -0.494974
v -0.494974 1.000000 0.494974
v 0.494974 -0.000000 0.494974
v -0.494974 0.000000 -0.494974
v -0.494974 1.000000 -0.494974
v 0.494974 1.000000 0.494974
v 0.494974 0.000000 -0.494974
v -0.494974 -0.000000 0.494974
v -0.494974 1.000000 0.494974
v 0.494974 1.000000 -0.494974
v -0.494974 0.000000 -0.494974
v 0.494974 -0.000000 0.494974
v 0.494974 1.000000 0.494974
v -0.494974 1.000000 -0.494974
vt 0.000000 0.000000
vt 1.000000 0.000000
vt 1.000000 1.000000
vt 0.000000 1.000000
vt 0.000000 0.000000
vt 1.000000 0.000000
vt 1.000000 1.000000
vt 0.000000 1.000000
vt 0.000000 0.000000
vt 1.000000 0.000000
vt 1.000000 1.000000
vt 0.000000 1.000000
vt 0.000000 0.000000
vt 1.000000 0.000000
vt 1.000000 1.000000
vt 0.000000 1.000000
vn 0.7071 -0.0000 0.7071
vn 0.7071 0.0000 -0.7071
vn -0.7071 0.0000 -0.7071
vn -0.7071 -0.0000 0.7071
usemtl None
s 1
f 1/1/1 2/2/1 3/3/1 4/4/1
f 5/5/2 6/6/2 7/7/2 8/8/2
f 9/9/3 10/10/3 11/11/3 12/12/3
f 13/13/4 14/14/4 15/15/4 16/16/4
