# Blender v2.83.4 OBJ File: ''
# www.blender.org
mtllib fluffy_grass.mtl
o Cube.001
v 0.328553 -0.000000 0.378553
v -0.171447 0.707107 0.878553
v -0.878553 0.707107 0.171447
v -0.378553 0.000000 -0.328553
v 0.328553 0.000000 -0.378553
v -0.171447 0.707107 -0.878553
v -0.878553 0.707107 -0.171447
v -0.378553 -0.000000 0.328553
v -0.328553 0.000000 -0.378553
v 0.171447 0.707107 -0.878553
v 0.878553 0.707107 -0.171446
v 0.378553 -0.000000 0.328553
v 0.378553 0.000000 -0.328553
v 0.878553 0.707107 0.171447
v 0.171447 0.707107 0.878553
v -0.328553 -0.000000 0.378553
v 0.494975 -0.000000 0.494975
v 0.494975 1.000000 0.494975
v -0.494975 1.000000 -0.494975
v -0.494975 0.000000 -0.494975
v -0.494975 -0.000000 0.494975
v -0.494975 1.000000 0.494975
v 0.494975 1.000000 -0.494975
v 0.494975 0.000000 -0.494975
v 0.328553 -0.000000 0.378553
v -0.171447 0.707107 0.878553
v -0.878553 0.707107 0.171447
v -0.378553 0.000000 -0.328553
v 0.328553 0.000000 -0.378553
v -0.171447 0.707107 -0.878553
v -0.878553 0.707107 -0.171447
v -0.378553 -0.000000 0.328553
v -0.328553 0.000000 -0.378553
v 0.171447 0.707107 -0.878553
v 0.878553 0.707107 -0.171446
v 0.378553 -0.000000 0.328553
v 0.378553 0.000000 -0.328553
v 0.878553 0.707107 0.171447
v 0.171447 0.707107 0.878553
v -0.328553 -0.000000 0.378553
v 0.494975 -0.000000 0.494975
v 0.494975 1.000000 0.494975
v -0.494975 1.000000 -0.494975
v -0.494975 0.000000 -0.494975
v -0.494975 -0.000000 0.494975
v -0.494975 1.000000 0.494975
v 0.494975 1.000000 -0.494975
v 0.494975 0.000000 -0.494975
vt 1.000000 -0.000000
vt 1.000000 1.000000
vt 0.000000 1.000000
vt -0.000000 0.000000
vt 1.000000 -0.000000
vt 1.000000 1.000000
vt 0.000000 1.000000
vt -0.000000 0.000000
vt 1.000000 -0.000000
vt 1.000000 1.000000
vt 0.000000 1.000000
vt -0.000000 0.000000
vt 1.000000 -0.000000
vt 1.000000 1.000000
vt 0.000000 1.000000
vt -0.000000 0.000000
vt 1.000000 -0.000000
vt 1.000000 1.000000
vt 0.000000 1.000000
vt -0.000000 0.000000
vt 1.000000 -0.000000
vt 1.000000 1.000000
vt 0.000000 1.000000
vt -0.000000 0.000000
vt 0.000000 0.000000
vt 1.000000 0.000000
vt 1.000000 1.000000
vt 0.000000 1.000000
vt 0.000000 0.000000
vt 1.000000 0.000000
vt 1.000000 1.000000
vt 0.000000 1.000000
vt 0.000000 0.000000
vt 1.000000 0.000000
vt 1.000000 1.000000
vt 0.000000 1.000000
vt 0.000000 0.000000
vt 1.000000 0.000000
vt 1.000000 1.000000
vt 0.000000 1.000000
vt 0.000000 0.000000
vt 1.000000 0.000000
vt 1.000000 1.000000
vt 0.000000 1.000000
vt 0.000000 0.000000
vt 1.000000 0.000000
vt 1.000000 1.000000
vt 0.000000 1.000000
vn -0.5000 -0.7071 0.5000
vn 0.5000 0.7071 0.5000
vn 0.5000 -0.7071 -0.5000
vn 0.5000 -0.7071 0.5000
vn -0.7071 -0.0000 0.7071
vn -0.7071 0.0000 -0.7071
vn 0.5000 0.7071 -0.5000
vn -0.5000 -0.7071 -0.5000
vn -0.5000 0.7071 0.5000
vn -0.5000 0.7071 -0.5000
vn 0.7071 0.0000 -0.7071
vn 0.7071 -0.0000 0.7071
usemtl Material.001
s 1
f 1/1/1 2/2/1 3/3/1 4/4/1
f 5/5/2 6/6/2 7/7/2 8/8/2
f 9/9/3 10/10/3 11/11/3 12/12/3
f 13/13/4 14/14/4 15/15/4 16/16/4
f 17/17/5 18/18/5 19/19/5 20/20/5
f 21/21/6 22/22/6 23/23/6 24/24/6
f 25/25/7 28/26/7 27/27/7 26/28/7
f 29/29/8 32/30/8 31/31/8 30/32/8
f 33/33/9 36/34/9 35/35/9 34/36/9
f 37/37/10 40/38/10 39/39/10 38/40/10
f 41/41/11 44/42/11 43/43/11 42/44/11
f 45/45/12 48/46/12 47/47/12 46/48/12
