# Blender v2.83.4 OBJ File: 'normal_crop.blend'
# www.blender.org
mtllib normal_crop.mtl
o Cube
v 0.500000 0.500000 0.250000
v 0.500000 -0.500000 0.250000
v 0.500000 0.500000 0.250000
v 0.500000 -0.500000 0.250000
v -0.500000 0.500000 0.250000
v -0.500000 -0.500000 0.250000
v -0.500000 0.500000 0.250000
v -0.500000 -0.500000 0.250000
v 0.500000 0.500000 -0.250000
v 0.500000 -0.500000 -0.250000
v 0.500000 0.500000 -0.250000
v 0.500000 -0.500000 -0.250000
v -0.500000 0.500000 -0.250000
v -0.500000 -0.500000 -0.250000
v -0.500000 0.500000 -0.250000
v -0.500000 -0.500000 -0.250000
v 0.250000 0.500000 -0.500000
v 0.250000 -0.500000 -0.500000
v 0.250000 0.500000 -0.500000
v 0.250000 -0.500000 -0.500000
v 0.250000 0.500000 0.500000
v 0.250000 -0.500000 0.500000
v 0.250000 0.500000 0.500000
v 0.250000 -0.500000 0.500000
v -0.250000 0.500000 -0.500000
v -0.250000 -0.500000 -0.500000
v -0.250000 0.500000 -0.500000
v -0.250000 -0.500000 -0.500000
v -0.250000 0.500000 0.500000
v -0.250000 -0.500000 0.500000
v -0.250000 0.500000 0.500000
v -0.250000 -0.500000 0.500000
vt 1.000000 -0.000000
vt 1.000000 1.000000
vt 0.000000 1.000000
vt 0.000000 0.000000
vt 1.000000 -0.000000
vt 1.000000 1.000000
vt 0.000000 1.000000
vt 0.000000 0.000000
vt 1.000000 -0.000000
vt 1.000000 1.000000
vt 0.000000 1.000000
vt 0.000000 0.000000
vt 1.000000 -0.000000
vt 1.000000 1.000000
vt 0.000000 1.000000
vt 0.000000 0.000000
vt 1.000000 -0.000000
vt 1.000000 1.000000
vt 0.000000 1.000000
vt 0.000000 0.000000
vt 1.000000 -0.000000
vt 1.000000 1.000000
vt 0.000000 1.000000
vt 0.000000 0.000000
vt 1.000000 -0.000000
vt 1.000000 1.000000
vt 0.000000 1.000000
vt 0.000000 0.000000
vt 1.000000 -0.000000
vt 1.000000 1.000000
vt 0.000000 1.000000
vt 0.000000 0.000000
vn 0.0000 0.0000 1.0000
vn 0.0000 0.0000 -1.0000
vn 1.0000 0.0000 0.0000
vn -1.0000 0.0000 -0.0000
usemtl Material
s off
f 4/1/1 3/2/1 7/3/1 8/4/1
f 6/5/2 5/6/2 1/7/2 2/8/2
f 12/9/1 11/10/1 15/11/1 16/12/1
f 14/13/2 13/14/2 9/15/2 10/16/2
f 20/17/3 19/18/3 23/19/3 24/20/3
f 22/21/4 21/22/4 17/23/4 18/24/4
f 28/25/3 27/26/3 31/27/3 32/28/3
f 30/29/4 29/30/4 25/31/4 26/32/4
