# Blender v2.93.1 OBJ File: 'wall_coral.blend'
# www.blender.org
mtllib wall_coral_2.mtl
o wall_coral_2_Plane.006
v -0.500000 0.512310 0.000000
v 0.500000 0.512310 0.000000
v -0.500000 0.512310 -0.500000
v 0.500000 0.512310 -0.500000
v 0.000000 0.012310 -0.500000
v -0.000000 0.012310 0.000000
v 0.000000 0.512310 -0.500000
v -0.000000 0.512310 0.000000
v 0.125000 0.512310 -0.000000
v 0.478553 0.512310 -0.353553
v 0.125000 0.012310 -0.000000
v 0.478553 0.012310 -0.353553
v -0.125000 0.512310 0.000000
v -0.478553 0.512310 -0.353553
v -0.125000 0.012310 0.000000
v -0.478553 0.012310 -0.353553
v -0.500000 0.512310 0.000000
v 0.500000 0.512310 0.000000
v -0.500000 0.512310 -0.500000
v 0.500000 0.512310 -0.500000
v 0.000000 0.012310 -0.500000
v -0.000000 0.012310 0.000000
v 0.000000 0.512310 -0.500000
v -0.000000 0.512310 0.000000
v 0.125000 0.512310 -0.000000
v 0.478553 0.512310 -0.353553
v 0.125000 0.012310 -0.000000
v 0.478553 0.012310 -0.353553
v -0.125000 0.512310 0.000000
v -0.478553 0.512310 -0.353553
v -0.125000 0.012310 0.000000
v -0.478553 0.012310 -0.353553
v -0.446607 0.813880 0.006562
v 0.252995 0.813880 0.006562
v -0.446607 0.813880 -0.343239
v 0.252995 0.813880 -0.343239
v -0.096806 0.464079 -0.343239
v -0.096806 0.464079 0.006562
v -0.096806 0.813880 -0.343239
v -0.096806 0.813880 0.006562
v -0.009356 0.813880 0.006562
v 0.237991 0.813880 -0.240785
v -0.009356 0.464079 0.006562
v 0.237991 0.464079 -0.240785
v -0.184256 0.813880 0.006562
v -0.431603 0.813880 -0.240785
v -0.184256 0.464079 0.006562
v -0.431603 0.464079 -0.240785
v -0.446607 0.813880 0.006562
v 0.252995 0.813880 0.006562
v -0.446607 0.813880 -0.343239
v 0.252995 0.813880 -0.343239
v -0.096806 0.464079 -0.343239
v -0.096806 0.464079 0.006562
v -0.096806 0.813880 -0.343239
v -0.096806 0.813880 0.006562
v -0.009356 0.813880 0.006562
v 0.237991 0.813880 -0.240785
v -0.009356 0.464079 0.006562
v 0.237991 0.464079 -0.240785
v -0.184256 0.813880 0.006562
v -0.431603 0.813880 -0.240785
v -0.184256 0.464079 0.006562
v -0.431603 0.464079 -0.240785
vt 0.000000 0.000000
vt 1.000000 0.000000
vt 1.000000 0.500000
vt 0.000000 0.500000
vt 0.500000 0.500000
vt 1.000000 0.500000
vt 1.000000 1.000000
vt 0.500000 1.000000
vt 0.500000 0.500000
vt 1.000000 0.500000
vt 1.000000 1.000000
vt 0.500000 1.000000
vt 0.500000 0.500000
vt 1.000000 0.500000
vt 1.000000 1.000000
vt 0.500000 1.000000
vt 0.000000 0.000000
vt 0.000000 0.500000
vt 1.000000 0.500000
vt 1.000000 0.000000
vt 0.500000 0.500000
vt 0.500000 1.000000
vt 1.000000 1.000000
vt 1.000000 0.500000
vt 0.500000 0.500000
vt 0.500000 1.000000
vt 1.000000 1.000000
vt 1.000000 0.500000
vt 0.500000 0.500000
vt 0.500000 1.000000
vt 1.000000 1.000000
vt 1.000000 0.500000
vt 0.000000 0.000000
vt 1.000000 0.000000
vt 1.000000 0.500000
vt 0.000000 0.500000
vt 0.500000 0.500000
vt 1.000000 0.500000
vt 1.000000 1.000000
vt 0.500000 1.000000
vt 0.500000 0.500000
vt 1.000000 0.500000
vt 1.000000 1.000000
vt 0.500000 1.000000
vt 0.500000 0.500000
vt 1.000000 0.500000
vt 1.000000 1.000000
vt 0.500000 1.000000
vt 0.000000 0.000000
vt 0.000000 0.500000
vt 1.000000 0.500000
vt 1.000000 0.000000
vt 0.500000 0.500000
vt 0.500000 1.000000
vt 1.000000 1.000000
vt 1.000000 0.500000
vt 0.500000 0.500000
vt 0.500000 1.000000
vt 1.000000 1.000000
vt 1.000000 0.500000
vt 0.500000 0.500000
vt 0.500000 1.000000
vt 1.000000 1.000000
vt 1.000000 0.500000
vn 0.0000 1.0000 0.0000
vn -1.0000 0.0000 -0.0000
vn -0.7071 0.0000 -0.7071
vn -0.7071 -0.0000 0.7071
vn 0.0000 -1.0000 0.0000
vn 1.0000 -0.0000 0.0000
vn 0.7071 -0.0000 0.7071
vn 0.7071 0.0000 -0.7071
usemtl Leaf
s off
f 1/1/1 2/2/1 4/3/1 3/4/1
f 5/5/2 6/6/2 8/7/2 7/8/2
f 12/9/3 11/10/3 9/11/3 10/12/3
f 16/13/4 15/14/4 13/15/4 14/16/4
f 17/17/5 19/18/5 20/19/5 18/20/5
f 21/21/6 23/22/6 24/23/6 22/24/6
f 28/25/7 26/26/7 25/27/7 27/28/7
f 32/29/8 30/30/8 29/31/8 31/32/8
f 33/33/1 34/34/1 36/35/1 35/36/1
f 37/37/2 38/38/2 40/39/2 39/40/2
f 44/41/3 43/42/3 41/43/3 42/44/3
f 48/45/4 47/46/4 45/47/4 46/48/4
f 49/49/5 51/50/5 52/51/5 50/52/5
f 53/53/6 55/54/6 56/55/6 54/56/6
f 60/57/7 58/58/7 57/59/7 59/60/7
f 64/61/8 62/62/8 61/63/8 63/64/8
