# Blender v2.83.4 OBJ File: 'warped_fungus.blend'
# www.blender.org
mtllib warped_fungus.mtl
o cube.004
v -0.187500 0.187500 -0.187500
v -0.187500 0.000000 -0.187500
v -0.187500 0.187500 -0.312500
v -0.187500 0.000000 -0.312500
v -0.312500 0.187500 -0.312500
v -0.312500 0.000000 -0.312500
v -0.312500 0.187500 -0.187500
v -0.312500 0.000000 -0.187500
v 0.000000 0.403253 -0.034186
v 0.000000 0.218602 -0.001627
v 0.000000 0.316429 -0.526590
v 0.000000 0.131778 -0.494031
v -0.500000 0.316429 -0.526590
v -0.500000 0.131778 -0.494031
v -0.500000 0.403253 -0.034186
v -0.500000 0.218602 -0.001627
v 0.281250 0.250000 0.218750
v 0.281250 -0.000000 0.218750
v 0.281250 0.250000 0.031250
v 0.281250 -0.000000 0.031250
v 0.093750 0.250000 0.031250
v 0.093750 -0.000000 0.031250
v 0.093750 0.250000 0.218750
v 0.093750 -0.000000 0.218750
v 0.275000 0.399622 0.249885
v 0.275000 0.214970 0.217326
v 0.275000 0.432181 0.065233
v 0.275000 0.247530 0.032674
v 0.087500 0.432181 0.065233
v 0.087500 0.247530 0.032674
v 0.087500 0.399622 0.249885
v 0.087500 0.214970 0.217326
v 0.493750 0.607838 0.508724
v 0.493750 0.361636 0.465312
v 0.493750 0.716368 -0.106781
v 0.493750 0.470167 -0.150193
v -0.131250 0.716368 -0.106781
v -0.131250 0.470167 -0.150193
v -0.131250 0.607838 0.508724
v -0.131250 0.361636 0.465312
v 0.430660 0.375517 0.405788
v 0.430660 0.462745 -0.088906
v -0.071666 0.462745 -0.088906
v -0.071666 0.375517 0.405788
v 0.430660 0.252347 0.384070
v 0.430660 0.339575 -0.110624
v -0.071666 0.339575 -0.110624
v -0.071666 0.252347 0.384070
vt 0.812500 0.562500
vt 0.937500 0.562500
vt 0.937500 0.750000
vt 0.812500 0.750000
vt 0.812500 0.562500
vt 0.937500 0.562500
vt 0.937500 0.750000
vt 0.812500 0.750000
vt 0.812500 0.562500
vt 0.937500 0.562500
vt 0.937500 0.750000
vt 0.812500 0.750000
vt 0.062500 0.125000
vt 0.562500 0.125000
vt 0.562500 0.312500
vt 0.062500 0.312500
vt 0.062500 0.125000
vt 0.562500 0.125000
vt 0.562500 0.312500
vt 0.062500 0.312500
vt 0.062500 0.437500
vt 0.562500 0.437500
vt 0.562500 0.937500
vt 0.062500 0.937500
vt 0.062500 0.125000
vt 0.562500 0.125000
vt 0.562500 0.312500
vt 0.062500 0.312500
vt 0.062500 0.125000
vt 0.562500 0.125000
vt 0.562500 0.312500
vt 0.062500 0.312500
vt 0.812500 0.500000
vt 1.000000 0.500000
vt 1.000000 0.750000
vt 0.812500 0.750000
vt 0.812500 0.500000
vt 1.000000 0.500000
vt 1.000000 0.750000
vt 0.812500 0.750000
vt 0.812500 0.500000
vt 1.000000 0.500000
vt 1.000000 0.750000
vt 0.812500 0.750000
vt 0.812500 0.500000
vt 1.000000 0.500000
vt 1.000000 0.750000
vt 0.812500 0.750000
vt 0.000000 0.062500
vt 0.625000 0.062500
vt 0.625000 0.312500
vt 0.000000 0.312500
vt 0.812500 0.812500
vt 1.000000 0.812500
vt 1.000000 1.000000
vt 0.812500 1.000000
vt 0.812500 0.812500
vt 1.000000 0.812500
vt 1.000000 1.000000
vt 0.812500 1.000000
vt 0.000000 0.062500
vt 0.625000 0.062500
vt 0.625000 0.312500
vt 0.000000 0.312500
vt 0.000000 0.062500
vt 0.625000 0.062500
vt 0.625000 0.312500
vt 0.000000 0.312500
vt 0.000000 0.375000
vt 0.625000 0.375000
vt 0.625000 1.000000
vt 0.000000 1.000000
vt 0.000000 0.062500
vt 0.625000 0.062500
vt 0.625000 0.312500
vt 0.000000 0.312500
vt 0.812500 0.812500
vt 1.000000 0.812500
vt 1.000000 1.000000
vt 0.812500 1.000000
vt 0.812500 0.812500
vt 1.000000 0.812500
vt 1.000000 1.000000
vt 0.812500 1.000000
vt 0.812500 0.562500
vt 0.937500 0.562500
vt 0.937500 0.750000
vt 0.812500 0.750000
vt 0.000000 0.375000
vt 0.625000 0.375000
vt 0.625000 1.000000
vt 0.000000 1.000000
vt 0.000000 0.375000
vt 0.625000 0.375000
vt 0.625000 1.000000
vt 0.000000 1.000000
vt 0.562500 0.312500
vt 0.062500 0.312500
vt 0.062500 0.187500
vt 0.562500 0.187500
vt 0.562500 0.312500
vt 0.062500 0.312500
vt 0.062500 0.187500
vt 0.562500 0.187500
vt 0.562500 0.312500
vt 0.062500 0.312500
vt 0.062500 0.187500
vt 0.562500 0.187500
vt 0.562500 0.312500
vt 0.062500 0.312500
vt 0.062500 0.187500
vt 0.562500 0.187500
vn -1.0000 0.0000 0.0000
vn 0.0000 -0.0000 1.0000
vn 0.0000 0.0000 -1.0000
vn 1.0000 0.0000 0.0000
vn 0.0000 0.9848 -0.1736
vn 0.0000 0.1736 0.9848
vn 0.0000 -0.1736 -0.9848
vn 0.0000 -0.1736 0.9848
vn 0.0000 0.1736 -0.9848
vn 0.0000 0.9848 0.1736
vn 0.0000 -0.9848 0.1736
vn 0.0000 -0.9848 -0.1736
vn -0.7071 -0.1228 0.6964
vn -0.7071 0.1228 -0.6964
vn 0.7071 -0.1228 0.6964
vn 0.7071 0.1228 -0.6964
usemtl surface
s 1
f 6/1/1 8/2/1 7/3/1 5/4/1
f 8/5/2 2/6/2 1/7/2 7/8/2
f 4/9/3 6/10/3 5/11/3 3/12/3
f 10/13/4 12/14/4 11/15/4 9/16/4
f 14/17/1 16/18/1 15/19/1 13/20/1
f 15/21/5 9/22/5 11/23/5 13/24/5
f 16/25/6 10/26/6 9/27/6 15/28/6
f 12/29/7 14/30/7 13/31/7 11/32/7
f 18/33/4 20/34/4 19/35/4 17/36/4
f 22/37/1 24/38/1 23/39/1 21/40/1
f 24/41/2 18/42/2 17/43/2 23/44/2
f 20/45/3 22/46/3 21/47/3 19/48/3
f 40/49/8 34/50/8 33/51/8 39/52/8
f 30/53/1 32/54/1 31/55/1 29/56/1
f 28/57/9 30/58/9 29/59/9 27/60/9
f 34/61/4 36/62/4 35/63/4 33/64/4
f 38/65/1 40/66/1 39/67/1 37/68/1
f 39/69/10 33/70/10 35/71/10 37/72/10
f 36/73/9 38/74/9 37/75/9 35/76/9
f 32/77/8 26/78/8 25/79/8 31/80/8
f 26/81/4 28/82/4 27/83/4 25/84/4
f 2/85/4 4/86/4 3/87/4 1/88/4
usemtl bottom
f 14/89/11 12/90/11 10/91/11 16/92/11
f 38/93/12 36/94/12 34/95/12 40/96/12
f 44/97/13 43/98/14 47/99/14 48/100/13
f 41/101/15 44/102/13 48/103/13 45/104/15
f 42/105/16 41/106/15 45/107/15 46/108/16
f 43/109/14 42/110/16 46/111/16 47/112/14
