# Blender v2.93.1 OBJ File: 'bulbine.blend'
# www.blender.org
mtllib bulbine_stem_3.mtl
o stem_3_Cube.002
v 0.177834 0.401412 -0.027792
v 0.177834 0.651409 -0.027792
v 0.001059 0.401412 -0.204567
v 0.001059 0.651409 -0.204567
v 0.354609 0.401412 -0.204567
v 0.354609 0.651409 -0.204567
v 0.177834 0.401412 -0.381342
v 0.177834 0.651409 -0.381342
v -0.353553 0.000000 0.353553
v 0.353553 0.000000 -0.353553
v -0.353553 1.000000 0.353553
v 0.353553 1.000000 -0.353553
v 0.353553 0.000000 0.353553
v -0.353553 0.000000 -0.353553
v 0.353553 1.000000 0.353553
v -0.353553 1.000000 -0.353553
v 0.353553 0.000000 -0.353553
v -0.353553 0.000000 0.353553
v 0.353553 1.000000 -0.353553
v -0.353553 1.000000 0.353553
v -0.353553 0.000000 -0.353553
v 0.353553 0.000000 0.353553
v -0.353553 1.000000 -0.353553
v 0.353553 1.000000 0.353553
v -0.200845 0.446001 -0.015897
v -0.200845 0.196004 -0.015897
v -0.024070 0.446001 0.160878
v -0.024070 0.196004 0.160878
v -0.377620 0.446001 0.160878
v -0.377620 0.196004 0.160878
v -0.200845 0.446001 0.337653
v -0.200845 0.196004 0.337653
v 0.142901 0.676512 0.339985
v 0.142901 0.926510 0.339985
v -0.033874 0.676512 0.163210
v -0.033874 0.926510 0.163210
v 0.319676 0.676512 0.163210
v 0.319676 0.926510 0.163210
v 0.142901 0.676512 -0.013564
v 0.142901 0.926510 -0.013564
vt 0.000000 0.000000
vt 1.000000 0.000000
vt 1.000000 1.000000
vt 0.000000 1.000000
vt 0.000000 0.000000
vt 1.000000 0.000000
vt 1.000000 1.000000
vt 0.000000 1.000000
vt 0.000000 0.000000
vt 1.000000 0.000000
vt 1.000000 1.000000
vt 0.000000 1.000000
vt 0.000000 0.000000
vt 1.000000 0.000000
vt 1.000000 1.000000
vt 0.000000 1.000000
vt 0.375000 0.750000
vt 0.625000 0.750000
vt 0.625000 1.000000
vt 0.375000 1.000000
vt 0.375000 0.750000
vt 0.625000 0.750000
vt 0.625000 1.000000
vt 0.375000 1.000000
vt 0.625000 0.750000
vt 0.625000 1.000000
vt 0.375000 1.000000
vt 0.375000 0.750000
vt 0.625000 0.750000
vt 0.625000 1.000000
vt 0.375000 1.000000
vt 0.375000 0.750000
vt 0.625000 0.750000
vt 0.625000 1.000000
vt 0.375000 0.750000
vt 0.375000 1.000000
vt 0.375000 0.750000
vt 0.625000 0.750000
vt 0.625000 1.000000
vt 0.375000 1.000000
vt 0.375000 0.750000
vt 0.625000 0.750000
vt 0.375000 1.000000
vt 0.375000 0.750000
vt 0.625000 0.750000
vt 0.625000 1.000000
vt 0.375000 1.000000
vt 0.375000 0.750000
vt 0.625000 0.750000
vt 0.625000 1.000000
vt 0.375000 0.750000
vt 0.625000 0.750000
vt 0.625000 1.000000
vt 0.375000 1.000000
vt 0.625000 1.000000
vt 0.375000 1.000000
vt 0.375000 0.750000
vt 0.625000 0.750000
vt 0.625000 1.000000
vt 0.375000 1.000000
vt 0.375000 0.750000
vt 0.625000 0.750000
vt 0.625000 1.000000
vt 0.375000 1.000000
vt 0.625000 0.750000
vt 0.625000 1.000000
vt 0.375000 1.000000
vt 0.375000 0.750000
vt 0.625000 0.750000
vt 0.625000 1.000000
vt 0.375000 1.000000
vt 0.375000 0.750000
vt 0.625000 0.750000
vt 0.625000 1.000000
vt 0.375000 0.750000
vt 0.375000 1.000000
vn 0.7071 0.0000 0.7071
vn 0.7071 0.0000 -0.7071
vn -0.7071 0.0000 -0.7071
vn -0.7071 0.0000 0.7071
vn 0.0000 -1.0000 0.0000
vn 0.0000 1.0000 0.0000
usemtl Stem
s off
f 9/1/1 10/2/1 12/3/1 11/4/1
f 13/5/2 14/6/2 16/7/2 15/8/2
f 17/9/3 18/10/3 20/11/3 19/12/3
f 21/13/4 22/14/4 24/15/4 23/16/4
usemtl Lanterns
f 3/17/3 4/18/3 8/19/3 7/20/3
f 7/21/2 8/22/2 6/23/2 5/24/2
f 3/17/5 7/25/5 5/26/5 1/27/5
f 1/28/4 2/29/4 4/30/4 3/31/4
f 5/32/1 6/33/1 2/34/1 1/27/1
f 8/35/6 4/18/6 2/34/6 6/36/6
f 25/37/6 29/38/6 31/39/6 27/40/6
f 28/41/1 27/42/1 31/39/1 32/43/1
f 32/44/4 31/45/4 29/46/4 30/47/4
f 30/48/5 26/49/5 28/50/5 32/43/5
f 26/51/2 25/52/2 27/53/2 28/54/2
f 30/48/3 29/38/3 25/55/3 26/56/3
f 35/57/3 36/58/3 40/59/3 39/60/3
f 39/61/2 40/62/2 38/63/2 37/64/2
f 35/57/5 39/65/5 37/66/5 33/67/5
f 33/68/4 34/69/4 36/70/4 35/71/4
f 37/72/1 38/73/1 34/74/1 33/67/1
f 40/75/6 36/58/6 34/74/6 38/76/6
