# Blender v2.93.1 OBJ File: 'bulbine.blend'
# www.blender.org
mtllib bulbine_stem_1.mtl
o stem_1_Cube
v 0.224904 0.764003 -0.494996
v 0.224904 0.389003 -0.494996
v 0.490069 0.764003 -0.229831
v 0.490069 0.389003 -0.229831
v -0.040262 0.764003 -0.229831
v -0.040262 0.389003 -0.229831
v 0.224904 0.764003 0.035334
v 0.224904 0.389003 0.035334
v -0.353553 0.000000 0.353553
v 0.353553 0.000000 -0.353553
v -0.353553 1.000000 0.353553
v 0.353553 1.000000 -0.353553
v 0.353553 0.000000 0.353553
v -0.353553 0.000000 -0.353553
v 0.353553 1.000000 0.353553
v -0.353553 1.000000 -0.353553
v 0.353553 0.000000 -0.353553
v -0.353553 0.000000 0.353553
v 0.353553 1.000000 -0.353553
v -0.353553 1.000000 0.353553
v -0.353553 0.000000 -0.353553
v 0.353553 0.000000 0.353553
v -0.353553 1.000000 -0.353553
v 0.353553 1.000000 0.353553
v -0.200845 0.402254 -0.015897
v -0.200845 0.152257 -0.015897
v -0.024070 0.402254 0.160878
v -0.024070 0.152257 0.160878
v -0.377620 0.402254 0.160878
v -0.377620 0.152257 0.160878
v -0.200845 0.402254 0.337653
v -0.200845 0.152257 0.337653
vt 0.000000 0.000000
vt 1.000000 0.000000
vt 1.000000 1.000000
vt 0.000000 1.000000
vt 0.000000 0.000000
vt 1.000000 0.000000
vt 1.000000 1.000000
vt 0.000000 1.000000
vt 0.000000 0.000000
vt 1.000000 0.000000
vt 1.000000 1.000000
vt 0.000000 1.000000
vt 0.000000 0.000000
vt 1.000000 0.000000
vt 1.000000 1.000000
vt 0.000000 1.000000
vt 0.000000 0.625000
vt 0.375000 0.625000
vt 0.375000 1.000000
vt 0.000000 1.000000
vt 0.000000 0.625000
vt 0.375000 0.625000
vt 0.000000 1.000000
vt 0.000000 0.625000
vt 0.375000 0.625000
vt 0.375000 1.000000
vt 0.000000 1.000000
vt 0.000000 0.625000
vt 0.375000 0.625000
vt 0.375000 1.000000
vt 0.000000 0.625000
vt 0.375000 0.625000
vt 0.375000 1.000000
vt 0.000000 1.000000
vt 0.375000 1.000000
vt 0.000000 1.000000
vt 0.375000 0.750000
vt 0.625000 0.750000
vt 0.625000 1.000000
vt 0.375000 1.000000
vt 0.375000 0.750000
vt 0.625000 0.750000
vt 0.375000 1.000000
vt 0.375000 0.750000
vt 0.625000 0.750000
vt 0.625000 1.000000
vt 0.375000 1.000000
vt 0.375000 0.750000
vt 0.625000 0.750000
vt 0.625000 1.000000
vt 0.375000 0.750000
vt 0.625000 0.750000
vt 0.625000 1.000000
vt 0.375000 1.000000
vt 0.625000 1.000000
vt 0.375000 1.000000
vn 0.7071 0.0000 0.7071
vn 0.7071 0.0000 -0.7071
vn -0.7071 0.0000 -0.7071
vn -0.7071 0.0000 0.7071
vn 0.0000 1.0000 -0.0000
vn 0.0000 -1.0000 0.0000
usemtl Stem
s off
f 9/1/1 10/2/1 12/3/1 11/4/1
f 13/5/2 14/6/2 16/7/2 15/8/2
f 17/9/3 18/10/3 20/11/3 19/12/3
f 21/13/4 22/14/4 24/15/4 23/16/4
usemtl Lanterns
f 1/17/5 5/18/5 7/19/5 3/20/5
f 4/21/1 3/22/1 7/19/1 8/23/1
f 8/24/4 7/25/4 5/26/4 6/27/4
f 6/28/6 2/29/6 4/30/6 8/23/6
f 2/31/2 1/32/2 3/33/2 4/34/2
f 6/28/3 5/18/3 1/35/3 2/36/3
f 25/37/5 29/38/5 31/39/5 27/40/5
f 28/41/1 27/42/1 31/39/1 32/43/1
f 32/44/4 31/45/4 29/46/4 30/47/4
f 30/48/6 26/49/6 28/50/6 32/43/6
f 26/51/2 25/52/2 27/53/2 28/54/2
f 30/48/3 29/38/3 25/55/3 26/56/3
