# Blender v2.93.1 OBJ File: 'darkshroom_blocks.blend'
# www.blender.org
mtllib darkshroom_block_side.mtl
o Side_Cube
v 0.500000 0.500000 -0.500000
v 0.500000 0.000000 -0.500000
v 0.500000 0.500000 0.500000
v 0.500000 0.000000 0.500000
v -0.500000 0.500000 -0.500000
v -0.500000 0.000000 -0.500000
v -0.500000 0.500000 0.500000
v -0.500000 0.000000 0.500000
v -0.494975 -0.500000 0.494975
v 0.494975 -0.500000 -0.494975
v -0.494975 0.000000 0.494975
v 0.494975 0.000000 -0.494975
v 0.494975 -0.500000 0.494975
v -0.494975 -0.500000 -0.494975
v 0.494975 -0.000000 0.494975
v -0.494975 -0.000000 -0.494975
v 0.494975 -0.500000 -0.494975
v -0.494975 -0.500000 0.494975
v 0.494975 0.000000 -0.494975
v -0.494975 0.000000 0.494975
v -0.494975 -0.500000 -0.494975
v 0.494975 -0.500000 0.494975
v -0.494975 -0.000000 -0.494975
v 0.494975 -0.000000 0.494975
vt 1.000000 -0.000000
vt 1.000000 1.000000
vt 0.000000 1.000000
vt -0.000000 0.000000
vt 1.000000 0.500000
vt 1.000000 1.000000
vt -0.000000 0.500000
vt 1.000000 0.500000
vt 1.000000 1.000000
vt 0.000000 1.000000
vt -0.000000 0.500000
vt 1.000000 0.500000
vt 1.000000 1.000000
vt 0.000000 1.000000
vt -0.000000 0.500000
vt 1.000000 0.500000
vt 0.000000 1.000000
vt -0.000000 0.500000
vt 0.000000 0.000000
vt 1.000000 0.000000
vt 1.000000 0.500000
vt 0.000000 0.500000
vt 0.000000 0.000000
vt 1.000000 0.000000
vt 1.000000 0.500000
vt 0.000000 0.500000
vt 0.000000 0.000000
vt 1.000000 0.000000
vt 1.000000 0.500000
vt 0.000000 0.500000
vt 0.000000 0.000000
vt 1.000000 0.000000
vt 1.000000 0.500000
vt 0.000000 0.500000
vt 1.000000 -0.000000
vt 1.000000 1.000000
vt 0.000000 1.000000
vt -0.000000 0.000000
vn 0.0000 1.0000 0.0000
vn 0.0000 0.0000 1.0000
vn -1.0000 0.0000 0.0000
vn 1.0000 0.0000 0.0000
vn 0.0000 0.0000 -1.0000
vn 0.7071 0.0000 0.7071
vn 0.7071 0.0000 -0.7071
vn -0.7071 0.0000 -0.7071
vn -0.7071 0.0000 0.7071
vn 0.0000 -1.0000 0.0000
usemtl Top
s off
f 1/1/1 5/2/1 7/3/1 3/4/1
usemtl Side
f 4/5/2 3/6/2 7/3/2 8/7/2
f 8/8/3 7/9/3 5/10/3 6/11/3
f 2/12/4 1/13/4 3/14/4 4/15/4
f 6/16/5 5/2/5 1/17/5 2/18/5
f 9/19/6 10/20/6 12/21/6 11/22/6
f 13/23/7 14/24/7 16/25/7 15/26/7
f 17/27/8 18/28/8 20/29/8 19/30/8
f 21/31/9 22/32/9 24/33/9 23/34/9
usemtl Bottom
f 6/35/10 2/36/10 4/37/10 8/38/10
