# Blender v2.93.1 OBJ File: 'darkshroom_blocks.blend'
# www.blender.org
mtllib darkshroom_block_center.mtl
o Center_Cube.001
v 0.500000 0.500000 -0.500000
v 0.500000 -0.500000 -0.500000
v 0.500000 0.500000 0.500000
v 0.500000 -0.500000 0.500000
v -0.500000 0.500000 -0.500000
v -0.500000 -0.500000 -0.500000
v -0.500000 0.500000 0.500000
v -0.500000 -0.500000 0.500000
vt -0.000000 1.000000
vt 1.000000 1.000000
vt 1.000000 0.000000
vt 0.000000 -0.000000
vt -0.000000 1.000000
vt 1.000000 1.000000
vt 1.000000 0.000000
vt 0.000000 -0.000000
vt 1.000000 1.000000
vt 1.000000 0.000000
vt 0.000000 -0.000000
vt -0.000000 1.000000
vt 1.000000 1.000000
vt 1.000000 0.000000
vt 0.000000 -0.000000
vt -0.000000 1.000000
vt 1.000000 0.000000
vt 0.000000 -0.000000
vt -0.000000 1.000000
vt 1.000000 1.000000
vn 0.0000 1.0000 0.0000
vn 1.0000 0.0000 0.0000
vn 0.0000 0.0000 1.0000
vn -1.0000 0.0000 0.0000
vn 0.0000 0.0000 -1.0000
vn 0.0000 -1.0000 0.0000
usemtl Top
s off
f 3/1/1 1/2/1 5/3/1 7/4/1
usemtl CenterSide
f 1/5/2 3/6/2 4/7/2 2/8/2
f 3/1/3 7/9/3 8/10/3 4/11/3
f 7/12/4 5/13/4 6/14/4 8/15/4
f 5/16/5 1/2/5 2/17/5 6/18/5
usemtl Bottom
f 8/19/6 6/20/6 2/17/6 4/11/6
