# Blender v2.83.4 OBJ File: ''
# www.blender.org
mtllib normal_crop.mtl
o Cube.002
v -0.500000 -0.500000 0.250000
v -0.500000 0.500000 0.250000
v 0.500000 0.500000 0.250000
v 0.500000 -0.500000 0.250000
v 0.500000 -0.500000 -0.250000
v 0.500000 0.500000 -0.250000
v -0.500000 0.500000 -0.250000
v -0.500000 -0.500000 -0.250000
v 0.250000 -0.500000 -0.500000
v 0.250000 0.500000 -0.500000
v 0.250000 0.500000 0.500000
v 0.250000 -0.500000 0.500000
v -0.250000 -0.500000 0.500000
v -0.250000 0.500000 0.500000
v -0.250000 0.500000 -0.500000
v -0.250000 -0.500000 -0.500000
v -0.500000 -0.500000 0.250000
v -0.500000 0.500000 0.250000
v 0.500000 0.500000 0.250000
v 0.500000 -0.500000 0.250000
v 0.500000 -0.500000 -0.250000
v 0.500000 0.500000 -0.250000
v -0.500000 0.500000 -0.250000
v -0.500000 -0.500000 -0.250000
v 0.250000 -0.500000 -0.500000
v 0.250000 0.500000 -0.500000
v 0.250000 0.500000 0.500000
v 0.250000 -0.500000 0.500000
v -0.250000 -0.500000 0.500000
v -0.250000 0.500000 0.500000
v -0.250000 0.500000 -0.500000
v -0.250000 -0.500000 -0.500000
vt 1.000000 -0.000000
vt 1.000000 1.000000
vt 0.000000 1.000000
vt 0.000000 0.000000
vt 1.000000 -0.000000
vt 1.000000 1.000000
vt 0.000000 1.000000
vt 0.000000 0.000000
vt 1.000000 -0.000000
vt 1.000000 1.000000
vt 0.000000 1.000000
vt 0.000000 0.000000
vt 1.000000 -0.000000
vt 1.000000 1.000000
vt 0.000000 1.000000
vt 0.000000 0.000000
vt 1.000000 -0.000000
vt 0.000000 0.000000
vt 0.000000 1.000000
vt 1.000000 1.000000
vt 1.000000 -0.000000
vt 0.000000 0.000000
vt 0.000000 1.000000
vt 1.000000 1.000000
vt 1.000000 -0.000000
vt 0.000000 0.000000
vt 0.000000 1.000000
vt 1.000000 1.000000
vt 1.000000 -0.000000
vt 0.000000 0.000000
vt 0.000000 1.000000
vt 1.000000 1.000000
vn 0.0000 0.0000 -1.0000
vn 0.0000 -0.0000 1.0000
vn 1.0000 0.0000 0.0000
vn -1.0000 -0.0000 0.0000
usemtl Material.002
s 1
f 1/1/1 2/2/1 3/3/1 4/4/1
f 5/5/2 6/6/2 7/7/2 8/8/2
f 9/9/3 10/10/3 11/11/3 12/12/3
f 13/13/4 14/14/4 15/15/4 16/16/4
f 17/17/2 20/18/2 19/19/2 18/20/2
f 21/21/1 24/22/1 23/23/1 22/24/1
f 25/25/4 28/26/4 27/27/4 26/28/4
f 29/29/3 32/30/3 31/31/3 30/32/3
